<?xml version="1.0" encoding="UTF-8" standalone="no"?>
<!DOCTYPE svg PUBLIC "-//W3C//DTD SVG 1.1//EN"
 "http://www.w3.org/Graphics/SVG/1.1/DTD/svg11.dtd">
<!-- Generated by graphviz version 2.38.0 (20140413.2041)
 -->
<!-- Title: %3 Pages: 1 -->
<svg width="228pt" height="200pt"
 viewBox="0.00 0.00 227.50 199.82" xmlns="http://www.w3.org/2000/svg" xmlns:xlink="http://www.w3.org/1999/xlink">
<g id="graph0" class="graph" transform="scale(1 1) rotate(0) translate(4 195.823)">
<title>%3</title>
<polygon fill="white" stroke="none" points="-4,4 -4,-195.823 223.5,-195.823 223.5,4 -4,4"/>
<!-- x -->
<g id="node1" class="node"><title>x</title>
<polygon fill="lightgray" stroke="black" points="20,-125.61 0,-125.61 0,-107.61 20,-107.61 20,-125.61"/>
<text text-anchor="middle" x="10" y="-114.41" font-family="Times New Roman,serif" font-size="9.00">x</text>
</g>
<!-- control -->
<g id="node5" class="node"><title>control</title>
<ellipse fill="lightblue" stroke="black" cx="92" cy="-29.6985" rx="29.8983" ry="29.8983"/>
<text text-anchor="middle" x="92" y="-27.4985" font-family="Times New Roman,serif" font-size="9.00">control</text>
</g>
<!-- x&#45;&gt;control -->
<g id="edge6" class="edge"><title>x&#45;&gt;control</title>
<path fill="none" stroke="green" stroke-width="0.323546" d="M17.7324,-107.318C21.1682,-103.651 25.2711,-99.2946 29,-95.397 40.4477,-83.4314 53.1737,-70.3257 64.1744,-59.0577"/>
<polygon fill="green" stroke="green" stroke-width="0.323546" points="66.99,-61.1844 71.4777,-51.5869 61.9844,-56.291 66.99,-61.1844"/>
</g>
<!-- dx -->
<g id="node2" class="node"><title>dx</title>
<polygon fill="lightgray" stroke="black" points="63.5,-125.61 38.5,-125.61 38.5,-107.61 63.5,-107.61 63.5,-125.61"/>
<text text-anchor="middle" x="51" y="-114.41" font-family="Times New Roman,serif" font-size="9.00">dx</text>
</g>
<!-- dx&#45;&gt;control -->
<g id="edge2" class="edge"><title>dx&#45;&gt;control</title>
<path fill="none" stroke="green" stroke-width="0.268645" d="M54.9313,-107.468C59.5455,-97.9123 67.5048,-81.4284 74.8681,-66.179"/>
<polygon fill="green" stroke="green" stroke-width="0.268645" points="78.1441,-67.4436 79.3405,-56.9165 71.8404,-64.3998 78.1441,-67.4436"/>
</g>
<!-- theta -->
<g id="node3" class="node"><title>theta</title>
<polygon fill="lightgray" stroke="black" points="133.5,-191.823 98.5,-191.823 98.5,-173.823 133.5,-173.823 133.5,-191.823"/>
<text text-anchor="middle" x="116" y="-180.623" font-family="Times New Roman,serif" font-size="9.00">theta</text>
</g>
<!-- theta&#45;&gt;control -->
<g id="edge3" class="edge"><title>theta&#45;&gt;control</title>
<path fill="none" stroke="green" stroke-width="0.508795" d="M114.71,-173.698C111.644,-154.391 103.758,-104.737 98.1414,-69.37"/>
<polygon fill="green" stroke="green" stroke-width="0.508795" points="101.576,-68.6844 96.5513,-59.3572 94.6631,-69.7824 101.576,-68.6844"/>
</g>
<!-- 555 -->
<g id="node6" class="node"><title>555</title>
<ellipse fill="white" stroke="black" cx="141" cy="-116.61" rx="21.4286" ry="21.4286"/>
<text text-anchor="middle" x="141" y="-114.41" font-family="Times New Roman,serif" font-size="9.00">555</text>
</g>
<!-- theta&#45;&gt;555 -->
<g id="edge4" class="edge"><title>theta&#45;&gt;555</title>
<path fill="none" stroke="green" stroke-width="0.361957" d="M119.166,-173.691C121.894,-166.683 126.001,-156.136 129.919,-146.073"/>
<polygon fill="green" stroke="green" stroke-width="0.361957" points="133.2,-147.292 133.566,-136.704 126.677,-144.753 133.2,-147.292"/>
</g>
<!-- dtheta -->
<g id="node4" class="node"><title>dtheta</title>
<polygon fill="lightgray" stroke="black" points="219.5,-125.61 180.5,-125.61 180.5,-107.61 219.5,-107.61 219.5,-125.61"/>
<text text-anchor="middle" x="200" y="-114.41" font-family="Times New Roman,serif" font-size="9.00">dtheta</text>
</g>
<!-- dtheta&#45;&gt;control -->
<g id="edge1" class="edge"><title>dtheta&#45;&gt;control</title>
<path fill="none" stroke="green" stroke-width="0.768234" d="M189.645,-107.468C174.41,-95.4905 145.331,-72.6286 122.853,-54.9558"/>
<polygon fill="green" stroke="green" stroke-width="0.768234" points="124.933,-52.1386 114.908,-48.7093 120.606,-57.6415 124.933,-52.1386"/>
</g>
<!-- 555&#45;&gt;control -->
<g id="edge5" class="edge"><title>555&#45;&gt;control</title>
<path fill="none" stroke="red" stroke-width="0.277782" d="M130.608,-97.6026C125.067,-87.9994 118.064,-75.8646 111.549,-64.5745"/>
<polygon fill="red" stroke="red" stroke-width="0.277782" points="114.495,-62.6776 106.466,-55.7657 108.432,-66.1764 114.495,-62.6776"/>
</g>
</g>
</svg>
