<?xml version="1.0" encoding="UTF-8" standalone="no"?>
<!DOCTYPE svg PUBLIC "-//W3C//DTD SVG 1.1//EN"
 "http://www.w3.org/Graphics/SVG/1.1/DTD/svg11.dtd">
<!-- Generated by graphviz version 2.38.0 (20140413.2041)
 -->
<!-- Title: %3 Pages: 1 -->
<svg width="302pt" height="451pt"
 viewBox="0.00 0.00 302.17 450.66" xmlns="http://www.w3.org/2000/svg" xmlns:xlink="http://www.w3.org/1999/xlink">
<g id="graph0" class="graph" transform="scale(1 1) rotate(0) translate(4 446.659)">
<title>%3</title>
<polygon fill="white" stroke="none" points="-4,4 -4,-446.659 298.169,-446.659 298.169,4 -4,4"/>
<!-- x -->
<g id="node1" class="node"><title>x</title>
<polygon fill="lightgray" stroke="black" points="20,-442.659 0,-442.659 0,-424.659 20,-424.659 20,-442.659"/>
<text text-anchor="middle" x="10" y="-431.459" font-family="Times New Roman,serif" font-size="9.00">x</text>
</g>
<!-- dx -->
<g id="node2" class="node"><title>dx</title>
<polygon fill="lightgray" stroke="black" points="63.5,-442.659 38.5,-442.659 38.5,-424.659 63.5,-424.659 63.5,-442.659"/>
<text text-anchor="middle" x="51" y="-431.459" font-family="Times New Roman,serif" font-size="9.00">dx</text>
</g>
<!-- control -->
<g id="node5" class="node"><title>control</title>
<ellipse fill="lightblue" stroke="black" cx="90" cy="-358.96" rx="29.8983" ry="29.8983"/>
<text text-anchor="middle" x="90" y="-356.76" font-family="Times New Roman,serif" font-size="9.00">control</text>
</g>
<!-- dx&#45;&gt;control -->
<g id="edge8" class="edge"><title>dx&#45;&gt;control</title>
<path fill="none" stroke="green" stroke-width="0.257661" d="M55.3227,-424.601C59.2975,-417.192 65.4741,-405.678 71.5197,-394.409"/>
<polygon fill="green" stroke="green" stroke-width="0.257661" points="74.6523,-395.973 76.2955,-385.507 68.4839,-392.664 74.6523,-395.973"/>
</g>
<!-- theta -->
<g id="node3" class="node"><title>theta</title>
<polygon fill="lightgray" stroke="black" points="193.5,-442.659 158.5,-442.659 158.5,-424.659 193.5,-424.659 193.5,-442.659"/>
<text text-anchor="middle" x="176" y="-431.459" font-family="Times New Roman,serif" font-size="9.00">theta</text>
</g>
<!-- theta&#45;&gt;control -->
<g id="edge1" class="edge"><title>theta&#45;&gt;control</title>
<path fill="none" stroke="green" stroke-width="0.732948" d="M166.468,-424.601C155.343,-415.197 136.398,-399.182 120.148,-385.446"/>
<polygon fill="green" stroke="green" stroke-width="0.732948" points="122.331,-382.708 112.434,-378.925 117.812,-388.053 122.331,-382.708"/>
</g>
<!-- 85 -->
<g id="node6" class="node"><title>85</title>
<ellipse fill="none" stroke="black" cx="186" cy="-18.3848" rx="18.2703" ry="18.2703"/>
<text text-anchor="middle" x="186" y="-16.1848" font-family="Times New Roman,serif" font-size="9.00">85</text>
</g>
<!-- theta&#45;&gt;85 -->
<g id="edge2" class="edge"><title>theta&#45;&gt;85</title>
<path fill="none" stroke="red" stroke-width="0.319168" d="M187.547,-424.613C216.887,-403.12 292,-341.106 292,-269.513 292,-269.513 292,-269.513 292,-182.016 292,-132.733 300.677,-113.547 273,-72.7696 258.612,-51.5712 232.728,-37.2898 212.921,-28.8737"/>
<polygon fill="red" stroke="red" stroke-width="0.319168" points="214.072,-25.5646 203.487,-25.1052 211.475,-32.0651 214.072,-25.5646"/>
</g>
<!-- 1981 -->
<g id="node7" class="node"><title>1981</title>
<ellipse fill="none" stroke="black" cx="186" cy="-183.016" rx="25" ry="25"/>
<text text-anchor="middle" x="186" y="-180.816" font-family="Times New Roman,serif" font-size="9.00">1981</text>
</g>
<!-- theta&#45;&gt;1981 -->
<g id="edge5" class="edge"><title>theta&#45;&gt;1981</title>
<path fill="none" stroke="green" stroke-width="0.49537" d="M176.333,-424.386C177.615,-392.497 182.283,-276.424 184.632,-218.04"/>
<polygon fill="green" stroke="green" stroke-width="0.49537" points="188.137,-217.975 185.042,-207.843 181.143,-217.694 188.137,-217.975"/>
</g>
<!-- 2070 -->
<g id="node8" class="node"><title>2070</title>
<ellipse fill="none" stroke="black" cx="133" cy="-268.513" rx="25" ry="25"/>
<text text-anchor="middle" x="133" y="-266.313" font-family="Times New Roman,serif" font-size="9.00">2070</text>
</g>
<!-- theta&#45;&gt;2070 -->
<g id="edge7" class="edge"><title>theta&#45;&gt;2070</title>
<path fill="none" stroke="green" stroke-width="0.490657" d="M173.809,-424.344C167.98,-402.23 151.85,-341.03 141.701,-302.526"/>
<polygon fill="green" stroke="green" stroke-width="0.490657" points="145.069,-301.57 139.136,-292.792 138.3,-303.354 145.069,-301.57"/>
</g>
<!-- dtheta -->
<g id="node4" class="node"><title>dtheta</title>
<polygon fill="lightgray" stroke="black" points="120.5,-442.659 81.5,-442.659 81.5,-424.659 120.5,-424.659 120.5,-442.659"/>
<text text-anchor="middle" x="101" y="-431.459" font-family="Times New Roman,serif" font-size="9.00">dtheta</text>
</g>
<!-- dtheta&#45;&gt;control -->
<g id="edge3" class="edge"><title>dtheta&#45;&gt;control</title>
<path fill="none" stroke="green" stroke-width="0.612993" d="M99.7808,-424.601C98.7907,-418.058 97.3162,-408.313 95.8107,-398.363"/>
<polygon fill="green" stroke="green" stroke-width="0.612993" points="99.2682,-397.819 94.3115,-388.455 92.347,-398.866 99.2682,-397.819"/>
</g>
<!-- control&#45;&gt;85 -->
<g id="edge4" class="edge"><title>control&#45;&gt;85</title>
<path fill="none" stroke="red" stroke-width="0.595992" d="M82.742,-330.088C70.3596,-276.183 50.875,-155.667 99,-72.7696 112.075,-50.248 138.807,-35.9916 159.208,-27.9326"/>
<polygon fill="red" stroke="red" stroke-width="0.595992" points="160.452,-31.2044 168.627,-24.4652 158.034,-24.6353 160.452,-31.2044"/>
</g>
<!-- control&#45;&gt;2070 -->
<g id="edge14" class="edge"><title>control&#45;&gt;2070</title>
<path fill="none" stroke="green" stroke-width="0.286038" d="M102.669,-331.902C107.486,-321.992 113.02,-310.61 118.031,-300.303"/>
<polygon fill="green" stroke="green" stroke-width="0.286038" points="121.225,-301.737 122.45,-291.214 114.93,-298.677 121.225,-301.737"/>
</g>
<!-- 85&#45;&gt;85 -->
<g id="edge11" class="edge"><title>85&#45;&gt;85</title>
<path fill="none" stroke="red" stroke-width="0.260386" d="M199.813,-30.9531C210.92,-35.9805 222.385,-31.791 222.385,-18.3848 222.385,-9.16798 216.966,-4.30756 209.97,-3.80352"/>
<polygon fill="red" stroke="red" stroke-width="0.260386" points="208.942,-0.439076 199.813,-5.81642 210.303,-7.30553 208.942,-0.439076"/>
</g>
<!-- 1981&#45;&gt;85 -->
<g id="edge6" class="edge"><title>1981&#45;&gt;85</title>
<path fill="none" stroke="red" stroke-width="0.539379" d="M186,-158.019C186,-128.459 186,-78.3373 186,-47.1463"/>
<polygon fill="red" stroke="red" stroke-width="0.539379" points="189.5,-46.9678 186,-36.9679 182.5,-46.9679 189.5,-46.9678"/>
</g>
<!-- 2343 -->
<g id="node9" class="node"><title>2343</title>
<ellipse fill="none" stroke="black" cx="239" cy="-97.5183" rx="25" ry="25"/>
<text text-anchor="middle" x="239" y="-95.3183" font-family="Times New Roman,serif" font-size="9.00">2343</text>
</g>
<!-- 1981&#45;&gt;2343 -->
<g id="edge9" class="edge"><title>1981&#45;&gt;2343</title>
<path fill="none" stroke="red" stroke-width="0.291569" d="M198.83,-161.803C205.357,-151.521 213.407,-138.838 220.583,-127.533"/>
<polygon fill="red" stroke="red" stroke-width="0.291569" points="223.701,-129.152 226.105,-118.834 217.791,-125.401 223.701,-129.152"/>
</g>
<!-- 2070&#45;&gt;1981 -->
<g id="edge15" class="edge"><title>2070&#45;&gt;1981</title>
<path fill="none" stroke="red" stroke-width="0.148233" d="M145.83,-247.301C152.357,-237.018 160.407,-224.336 167.583,-213.03"/>
<polygon fill="red" stroke="red" stroke-width="0.148233" points="170.701,-214.65 173.105,-204.331 164.791,-210.899 170.701,-214.65"/>
</g>
<!-- 2619 -->
<g id="node10" class="node"><title>2619</title>
<ellipse fill="none" stroke="black" cx="133" cy="-97.5183" rx="25" ry="25"/>
<text text-anchor="middle" x="133" y="-95.3183" font-family="Times New Roman,serif" font-size="9.00">2619</text>
</g>
<!-- 2070&#45;&gt;2619 -->
<g id="edge12" class="edge"><title>2070&#45;&gt;2619</title>
<path fill="none" stroke="red" stroke-width="0.197473" d="M133,-243.659C133,-214.678 133,-165.582 133,-132.615"/>
<polygon fill="red" stroke="red" stroke-width="0.197473" points="136.5,-132.524 133,-122.524 129.5,-132.524 136.5,-132.524"/>
</g>
<!-- 2343&#45;&gt;85 -->
<g id="edge10" class="edge"><title>2343&#45;&gt;85</title>
<path fill="none" stroke="red" stroke-width="0.135841" d="M225.351,-76.6545C218.259,-66.3322 209.545,-53.6514 202.122,-42.8483"/>
<polygon fill="red" stroke="red" stroke-width="0.135841" points="204.802,-40.5681 196.254,-34.3083 199.033,-44.5323 204.802,-40.5681"/>
</g>
<!-- 2619&#45;&gt;85 -->
<g id="edge13" class="edge"><title>2619&#45;&gt;85</title>
<path fill="none" stroke="red" stroke-width="0.278843" d="M146.649,-76.6545C153.741,-66.3322 162.455,-53.6514 169.878,-42.8483"/>
<polygon fill="red" stroke="red" stroke-width="0.278843" points="172.967,-44.5323 175.746,-34.3083 167.198,-40.5681 172.967,-44.5323"/>
</g>
</g>
</svg>
