<?xml version="1.0" encoding="UTF-8" standalone="no"?>
<!DOCTYPE svg PUBLIC "-//W3C//DTD SVG 1.1//EN"
 "http://www.w3.org/Graphics/SVG/1.1/DTD/svg11.dtd">
<!-- Generated by graphviz version 2.38.0 (20140413.2041)
 -->
<!-- Title: %3 Pages: 1 -->
<svg width="285pt" height="451pt"
 viewBox="0.00 0.00 285.00 450.66" xmlns="http://www.w3.org/2000/svg" xmlns:xlink="http://www.w3.org/1999/xlink">
<g id="graph0" class="graph" transform="scale(1 1) rotate(0) translate(4 446.659)">
<title>%3</title>
<polygon fill="white" stroke="none" points="-4,4 -4,-446.659 281,-446.659 281,4 -4,4"/>
<!-- x -->
<g id="node1" class="node"><title>x</title>
<polygon fill="lightgray" stroke="black" points="20,-442.659 0,-442.659 0,-424.659 20,-424.659 20,-442.659"/>
<text text-anchor="middle" x="10" y="-431.459" font-family="Times New Roman,serif" font-size="9.00">x</text>
</g>
<!-- dx -->
<g id="node2" class="node"><title>dx</title>
<polygon fill="lightgray" stroke="black" points="63.5,-442.659 38.5,-442.659 38.5,-424.659 63.5,-424.659 63.5,-442.659"/>
<text text-anchor="middle" x="51" y="-431.459" font-family="Times New Roman,serif" font-size="9.00">dx</text>
</g>
<!-- control -->
<g id="node5" class="node"><title>control</title>
<ellipse fill="lightblue" stroke="black" cx="90" cy="-358.96" rx="29.8983" ry="29.8983"/>
<text text-anchor="middle" x="90" y="-356.76" font-family="Times New Roman,serif" font-size="9.00">control</text>
</g>
<!-- dx&#45;&gt;control -->
<g id="edge8" class="edge"><title>dx&#45;&gt;control</title>
<path fill="none" stroke="green" stroke-width="0.257661" d="M55.3227,-424.601C59.2975,-417.192 65.4741,-405.678 71.5197,-394.409"/>
<polygon fill="green" stroke="green" stroke-width="0.257661" points="74.6523,-395.973 76.2955,-385.507 68.4839,-392.664 74.6523,-395.973"/>
</g>
<!-- theta -->
<g id="node3" class="node"><title>theta</title>
<polygon fill="lightgray" stroke="black" points="193.5,-442.659 158.5,-442.659 158.5,-424.659 193.5,-424.659 193.5,-442.659"/>
<text text-anchor="middle" x="176" y="-431.459" font-family="Times New Roman,serif" font-size="9.00">theta</text>
</g>
<!-- theta&#45;&gt;control -->
<g id="edge1" class="edge"><title>theta&#45;&gt;control</title>
<path fill="none" stroke="green" stroke-width="0.732948" d="M166.468,-424.601C155.343,-415.197 136.398,-399.182 120.148,-385.446"/>
<polygon fill="green" stroke="green" stroke-width="0.732948" points="122.331,-382.708 112.434,-378.925 117.812,-388.053 122.331,-382.708"/>
</g>
<!-- 85 -->
<g id="node7" class="node"><title>85</title>
<ellipse fill="white" stroke="black" cx="186" cy="-18.3848" rx="18.2703" ry="18.2703"/>
<text text-anchor="middle" x="186" y="-16.1848" font-family="Times New Roman,serif" font-size="9.00">85</text>
</g>
<!-- theta&#45;&gt;85 -->
<g id="edge2" class="edge"><title>theta&#45;&gt;85</title>
<path fill="none" stroke="red" stroke-width="0.319168" d="M185.684,-424.595C210.964,-402.579 277,-338.47 277,-269.513 277,-269.513 277,-269.513 277,-182.016 277,-130.155 263.365,-116.823 236,-72.7696 228.069,-60.0024 216.784,-47.6293 206.941,-38.015"/>
<polygon fill="red" stroke="red" stroke-width="0.319168" points="209.123,-35.2611 199.449,-30.9412 204.317,-40.3511 209.123,-35.2611"/>
</g>
<!-- 2070 -->
<g id="node8" class="node"><title>2070</title>
<ellipse fill="white" stroke="black" cx="126" cy="-268.513" rx="25" ry="25"/>
<text text-anchor="middle" x="126" y="-266.313" font-family="Times New Roman,serif" font-size="9.00">2070</text>
</g>
<!-- theta&#45;&gt;2070 -->
<g id="edge7" class="edge"><title>theta&#45;&gt;2070</title>
<path fill="none" stroke="green" stroke-width="0.490657" d="M173.452,-424.344C166.656,-402.17 147.817,-340.7 136.022,-302.216"/>
<polygon fill="green" stroke="green" stroke-width="0.490657" points="139.32,-301.029 133.043,-292.494 132.627,-303.08 139.32,-301.029"/>
</g>
<!-- 1981 -->
<g id="node10" class="node"><title>1981</title>
<ellipse fill="white" stroke="black" cx="186" cy="-183.016" rx="25" ry="25"/>
<text text-anchor="middle" x="186" y="-180.816" font-family="Times New Roman,serif" font-size="9.00">1981</text>
</g>
<!-- theta&#45;&gt;1981 -->
<g id="edge5" class="edge"><title>theta&#45;&gt;1981</title>
<path fill="none" stroke="green" stroke-width="0.49537" d="M176.333,-424.386C177.615,-392.497 182.283,-276.424 184.632,-218.04"/>
<polygon fill="green" stroke="green" stroke-width="0.49537" points="188.137,-217.975 185.042,-207.843 181.143,-217.694 188.137,-217.975"/>
</g>
<!-- dtheta -->
<g id="node4" class="node"><title>dtheta</title>
<polygon fill="lightgray" stroke="black" points="120.5,-442.659 81.5,-442.659 81.5,-424.659 120.5,-424.659 120.5,-442.659"/>
<text text-anchor="middle" x="101" y="-431.459" font-family="Times New Roman,serif" font-size="9.00">dtheta</text>
</g>
<!-- dtheta&#45;&gt;control -->
<g id="edge3" class="edge"><title>dtheta&#45;&gt;control</title>
<path fill="none" stroke="green" stroke-width="0.612993" d="M99.7808,-424.601C98.7907,-418.058 97.3162,-408.313 95.8107,-398.363"/>
<polygon fill="green" stroke="green" stroke-width="0.612993" points="99.2682,-397.819 94.3115,-388.455 92.347,-398.866 99.2682,-397.819"/>
</g>
<!-- control&#45;&gt;85 -->
<g id="edge4" class="edge"><title>control&#45;&gt;85</title>
<path fill="none" stroke="red" stroke-width="0.595992" d="M80.5379,-330.359C63.856,-276.406 35.4199,-155.056 85,-72.7696 100.763,-46.608 134.111,-32.6033 158.182,-25.5965"/>
<polygon fill="red" stroke="red" stroke-width="0.595992" points="159.098,-28.9747 167.853,-23.007 157.288,-22.2129 159.098,-28.9747"/>
</g>
<!-- control&#45;&gt;2070 -->
<g id="edge14" class="edge"><title>control&#45;&gt;2070</title>
<path fill="none" stroke="green" stroke-width="0.286038" d="M100.997,-330.943C104.843,-321.494 109.194,-310.803 113.176,-301.019"/>
<polygon fill="green" stroke="green" stroke-width="0.286038" points="116.475,-302.2 117.003,-291.618 109.991,-299.561 116.475,-302.2"/>
</g>
<!-- 2343 -->
<g id="node6" class="node"><title>2343</title>
<ellipse fill="white" stroke="black" cx="186" cy="-97.5183" rx="25" ry="25"/>
<text text-anchor="middle" x="186" y="-95.3183" font-family="Times New Roman,serif" font-size="9.00">2343</text>
</g>
<!-- 2343&#45;&gt;85 -->
<g id="edge10" class="edge"><title>2343&#45;&gt;85</title>
<path fill="none" stroke="red" stroke-width="0.135841" d="M186,-72.5356C186,-64.4509 186,-55.3634 186,-47.02"/>
<polygon fill="red" stroke="red" stroke-width="0.135841" points="189.5,-46.981 186,-36.9811 182.5,-46.9811 189.5,-46.981"/>
</g>
<!-- 85&#45;&gt;85 -->
<g id="edge11" class="edge"><title>85&#45;&gt;85</title>
<path fill="none" stroke="red" stroke-width="0.260386" d="M199.813,-30.9531C210.92,-35.9805 222.385,-31.791 222.385,-18.3848 222.385,-9.16798 216.966,-4.30756 209.97,-3.80352"/>
<polygon fill="red" stroke="red" stroke-width="0.260386" points="208.942,-0.439076 199.813,-5.81642 210.303,-7.30553 208.942,-0.439076"/>
</g>
<!-- 2619 -->
<g id="node9" class="node"><title>2619</title>
<ellipse fill="white" stroke="black" cx="119" cy="-97.5183" rx="25" ry="25"/>
<text text-anchor="middle" x="119" y="-95.3183" font-family="Times New Roman,serif" font-size="9.00">2619</text>
</g>
<!-- 2070&#45;&gt;2619 -->
<g id="edge12" class="edge"><title>2070&#45;&gt;2619</title>
<path fill="none" stroke="red" stroke-width="0.197473" d="M125.012,-243.659C123.808,-214.596 121.766,-165.303 120.401,-132.335"/>
<polygon fill="red" stroke="red" stroke-width="0.197473" points="123.894,-132.098 119.983,-122.251 116.9,-132.388 123.894,-132.098"/>
</g>
<!-- 2070&#45;&gt;1981 -->
<g id="edge15" class="edge"><title>2070&#45;&gt;1981</title>
<path fill="none" stroke="red" stroke-width="0.148233" d="M140.219,-247.726C147.916,-237.015 157.549,-223.609 165.991,-211.861"/>
<polygon fill="red" stroke="red" stroke-width="0.148233" points="168.89,-213.825 171.883,-203.661 163.205,-209.74 168.89,-213.825"/>
</g>
<!-- 2619&#45;&gt;85 -->
<g id="edge13" class="edge"><title>2619&#45;&gt;85</title>
<path fill="none" stroke="red" stroke-width="0.278843" d="M134.878,-78.2387C144.688,-66.9454 157.316,-52.4076 167.566,-40.6066"/>
<polygon fill="red" stroke="red" stroke-width="0.278843" points="170.304,-42.7922 174.219,-32.9474 165.019,-38.2017 170.304,-42.7922"/>
</g>
<!-- 1981&#45;&gt;2343 -->
<g id="edge9" class="edge"><title>1981&#45;&gt;2343</title>
<path fill="none" stroke="red" stroke-width="0.291569" d="M186,-157.865C186,-149.921 186,-140.936 186,-132.406"/>
<polygon fill="red" stroke="red" stroke-width="0.291569" points="189.5,-132.327 186,-122.327 182.5,-132.327 189.5,-132.327"/>
</g>
<!-- 1981&#45;&gt;85 -->
<g id="edge6" class="edge"><title>1981&#45;&gt;85</title>
<path fill="none" stroke="red" stroke-width="0.539379" d="M200.422,-162.688C207.857,-151.506 216.153,-136.805 220,-122.267 225.627,-101 226.155,-93.89 220,-72.7696 216.692,-61.4173 210.157,-50.1761 203.693,-40.9585"/>
<polygon fill="red" stroke="red" stroke-width="0.539379" points="206.403,-38.7367 197.625,-32.8035 200.787,-42.9156 206.403,-38.7367"/>
</g>
</g>
</svg>
