<?xml version="1.0" encoding="UTF-8" standalone="no"?>
<!DOCTYPE svg PUBLIC "-//W3C//DTD SVG 1.1//EN"
 "http://www.w3.org/Graphics/SVG/1.1/DTD/svg11.dtd">
<!-- Generated by graphviz version 2.38.0 (20140413.2041)
 -->
<!-- Title: %3 Pages: 1 -->
<svg width="288pt" height="451pt"
 viewBox="0.00 0.00 287.59 450.66" xmlns="http://www.w3.org/2000/svg" xmlns:xlink="http://www.w3.org/1999/xlink">
<g id="graph0" class="graph" transform="scale(1 1) rotate(0) translate(4 446.659)">
<title>%3</title>
<polygon fill="white" stroke="none" points="-4,4 -4,-446.659 283.59,-446.659 283.59,4 -4,4"/>
<!-- x -->
<g id="node1" class="node"><title>x</title>
<polygon fill="lightgray" stroke="black" points="20,-442.659 0,-442.659 0,-424.659 20,-424.659 20,-442.659"/>
<text text-anchor="middle" x="10" y="-431.459" font-family="Times New Roman,serif" font-size="9.00">x</text>
</g>
<!-- dx -->
<g id="node2" class="node"><title>dx</title>
<polygon fill="lightgray" stroke="black" points="63.5,-442.659 38.5,-442.659 38.5,-424.659 63.5,-424.659 63.5,-442.659"/>
<text text-anchor="middle" x="51" y="-431.459" font-family="Times New Roman,serif" font-size="9.00">dx</text>
</g>
<!-- control -->
<g id="node5" class="node"><title>control</title>
<ellipse fill="lightblue" stroke="black" cx="90" cy="-358.96" rx="29.8983" ry="29.8983"/>
<text text-anchor="middle" x="90" y="-356.76" font-family="Times New Roman,serif" font-size="9.00">control</text>
</g>
<!-- dx&#45;&gt;control -->
<g id="edge9" class="edge"><title>dx&#45;&gt;control</title>
<path fill="none" stroke="green" stroke-width="0.257661" d="M55.3227,-424.601C59.2975,-417.192 65.4741,-405.678 71.5197,-394.409"/>
<polygon fill="green" stroke="green" stroke-width="0.257661" points="74.6523,-395.973 76.2955,-385.507 68.4839,-392.664 74.6523,-395.973"/>
</g>
<!-- theta -->
<g id="node3" class="node"><title>theta</title>
<polygon fill="lightgray" stroke="black" points="193.5,-442.659 158.5,-442.659 158.5,-424.659 193.5,-424.659 193.5,-442.659"/>
<text text-anchor="middle" x="176" y="-431.459" font-family="Times New Roman,serif" font-size="9.00">theta</text>
</g>
<!-- theta&#45;&gt;control -->
<g id="edge1" class="edge"><title>theta&#45;&gt;control</title>
<path fill="none" stroke="green" stroke-width="0.732948" d="M166.468,-424.601C155.343,-415.197 136.398,-399.182 120.148,-385.446"/>
<polygon fill="green" stroke="green" stroke-width="0.732948" points="122.331,-382.708 112.434,-378.925 117.812,-388.053 122.331,-382.708"/>
</g>
<!-- 85 -->
<g id="node7" class="node"><title>85</title>
<ellipse fill="white" stroke="black" cx="152" cy="-18.3848" rx="18.2703" ry="18.2703"/>
<text text-anchor="middle" x="152" y="-16.1848" font-family="Times New Roman,serif" font-size="9.00">85</text>
</g>
<!-- theta&#45;&gt;85 -->
<g id="edge2" class="edge"><title>theta&#45;&gt;85</title>
<path fill="none" stroke="red" stroke-width="0.319168" d="M185.684,-424.595C210.964,-402.579 277,-338.47 277,-269.513 277,-269.513 277,-269.513 277,-182.016 277,-132.733 287.361,-112.351 258,-72.7696 238.988,-47.1394 204.184,-32.9818 179.653,-25.7961"/>
<polygon fill="red" stroke="red" stroke-width="0.319168" points="180.413,-22.3758 169.846,-23.1303 178.577,-29.1307 180.413,-22.3758"/>
</g>
<!-- 2070 -->
<g id="node8" class="node"><title>2070</title>
<ellipse fill="white" stroke="black" cx="133" cy="-268.513" rx="25" ry="25"/>
<text text-anchor="middle" x="133" y="-266.313" font-family="Times New Roman,serif" font-size="9.00">2070</text>
</g>
<!-- theta&#45;&gt;2070 -->
<g id="edge7" class="edge"><title>theta&#45;&gt;2070</title>
<path fill="none" stroke="green" stroke-width="0.490657" d="M173.809,-424.344C167.98,-402.23 151.85,-341.03 141.701,-302.526"/>
<polygon fill="green" stroke="green" stroke-width="0.490657" points="145.069,-301.57 139.136,-292.792 138.3,-303.354 145.069,-301.57"/>
</g>
<!-- 1981 -->
<g id="node10" class="node"><title>1981</title>
<ellipse fill="white" stroke="black" cx="186" cy="-183.016" rx="25" ry="25"/>
<text text-anchor="middle" x="186" y="-180.816" font-family="Times New Roman,serif" font-size="9.00">1981</text>
</g>
<!-- theta&#45;&gt;1981 -->
<g id="edge5" class="edge"><title>theta&#45;&gt;1981</title>
<path fill="none" stroke="green" stroke-width="0.49537" d="M176.333,-424.386C177.615,-392.497 182.283,-276.424 184.632,-218.04"/>
<polygon fill="green" stroke="green" stroke-width="0.49537" points="188.137,-217.975 185.042,-207.843 181.143,-217.694 188.137,-217.975"/>
</g>
<!-- dtheta -->
<g id="node4" class="node"><title>dtheta</title>
<polygon fill="lightgray" stroke="black" points="120.5,-442.659 81.5,-442.659 81.5,-424.659 120.5,-424.659 120.5,-442.659"/>
<text text-anchor="middle" x="101" y="-431.459" font-family="Times New Roman,serif" font-size="9.00">dtheta</text>
</g>
<!-- dtheta&#45;&gt;control -->
<g id="edge3" class="edge"><title>dtheta&#45;&gt;control</title>
<path fill="none" stroke="green" stroke-width="0.612993" d="M99.7808,-424.601C98.7907,-418.058 97.3162,-408.313 95.8107,-398.363"/>
<polygon fill="green" stroke="green" stroke-width="0.612993" points="99.2682,-397.819 94.3115,-388.455 92.347,-398.866 99.2682,-397.819"/>
</g>
<!-- control&#45;&gt;85 -->
<g id="edge4" class="edge"><title>control&#45;&gt;85</title>
<path fill="none" stroke="red" stroke-width="0.595992" d="M75.6066,-332.487C47.9225,-279.758 -5.63298,-156.585 46,-72.7696 62.9074,-45.324 98.7369,-31.486 124.047,-24.874"/>
<polygon fill="red" stroke="red" stroke-width="0.595992" points="124.92,-28.264 133.833,-22.5358 123.293,-21.4557 124.92,-28.264"/>
</g>
<!-- control&#45;&gt;2070 -->
<g id="edge15" class="edge"><title>control&#45;&gt;2070</title>
<path fill="none" stroke="green" stroke-width="0.286038" d="M102.669,-331.902C107.486,-321.992 113.02,-310.61 118.031,-300.303"/>
<polygon fill="green" stroke="green" stroke-width="0.286038" points="121.225,-301.737 122.45,-291.214 114.93,-298.677 121.225,-301.737"/>
</g>
<!-- 2343 -->
<g id="node6" class="node"><title>2343</title>
<ellipse fill="white" stroke="black" cx="224" cy="-97.5183" rx="25" ry="25"/>
<text text-anchor="middle" x="224" y="-95.3183" font-family="Times New Roman,serif" font-size="9.00">2343</text>
</g>
<!-- 2343&#45;&gt;85 -->
<g id="edge11" class="edge"><title>2343&#45;&gt;85</title>
<path fill="none" stroke="red" stroke-width="0.135841" d="M207.301,-78.6284C196.532,-67.0922 182.493,-52.0515 171.254,-40.012"/>
<polygon fill="red" stroke="red" stroke-width="0.135841" points="173.719,-37.5225 164.336,-32.6007 168.601,-42.2991 173.719,-37.5225"/>
</g>
<!-- 85&#45;&gt;85 -->
<g id="edge12" class="edge"><title>85&#45;&gt;85</title>
<path fill="none" stroke="red" stroke-width="0.260386" d="M165.813,-30.9531C176.92,-35.9805 188.385,-31.791 188.385,-18.3848 188.385,-9.16798 182.966,-4.30756 175.97,-3.80352"/>
<polygon fill="red" stroke="red" stroke-width="0.260386" points="174.942,-0.439076 165.813,-5.81642 176.303,-7.30553 174.942,-0.439076"/>
</g>
<!-- 2070&#45;&gt;85 -->
<g id="edge8" class="edge"><title>2070&#45;&gt;85</title>
<path fill="none" stroke="green" stroke-width="0.159214" stroke-dasharray="1,5" d="M134.822,-243.722C138.354,-197.599 146.114,-96.2515 149.874,-47.1445"/>
<polygon fill="green" stroke="green" stroke-width="0.159214" points="153.382,-47.1835 150.655,-36.9455 146.402,-46.649 153.382,-47.1835"/>
</g>
<!-- 2619 -->
<g id="node9" class="node"><title>2619</title>
<ellipse fill="white" stroke="black" cx="80" cy="-97.5183" rx="25" ry="25"/>
<text text-anchor="middle" x="80" y="-95.3183" font-family="Times New Roman,serif" font-size="9.00">2619</text>
</g>
<!-- 2070&#45;&gt;2619 -->
<g id="edge13" class="edge"><title>2070&#45;&gt;2619</title>
<path fill="none" stroke="red" stroke-width="0.197473" d="M125.852,-244.722C116.685,-215.492 100.725,-164.6 90.261,-131.237"/>
<polygon fill="red" stroke="red" stroke-width="0.197473" points="93.536,-129.983 87.2038,-121.488 86.8568,-132.077 93.536,-129.983"/>
</g>
<!-- 2070&#45;&gt;1981 -->
<g id="edge16" class="edge"><title>2070&#45;&gt;1981</title>
<path fill="none" stroke="red" stroke-width="0.148233" d="M145.83,-247.301C152.357,-237.018 160.407,-224.336 167.583,-213.03"/>
<polygon fill="red" stroke="red" stroke-width="0.148233" points="170.701,-214.65 173.105,-204.331 164.791,-210.899 170.701,-214.65"/>
</g>
<!-- 2619&#45;&gt;85 -->
<g id="edge14" class="edge"><title>2619&#45;&gt;85</title>
<path fill="none" stroke="red" stroke-width="0.278843" d="M96.6992,-78.6284C107.468,-67.0922 121.507,-52.0515 132.746,-40.012"/>
<polygon fill="red" stroke="red" stroke-width="0.278843" points="135.399,-42.2991 139.664,-32.6007 130.281,-37.5225 135.399,-42.2991"/>
</g>
<!-- 1981&#45;&gt;2343 -->
<g id="edge10" class="edge"><title>1981&#45;&gt;2343</title>
<path fill="none" stroke="red" stroke-width="0.291569" d="M195.984,-160.078C200.217,-150.777 205.227,-139.769 209.831,-129.652"/>
<polygon fill="red" stroke="red" stroke-width="0.291569" points="213.126,-130.861 214.083,-120.31 206.755,-127.962 213.126,-130.861"/>
</g>
<!-- 1981&#45;&gt;85 -->
<g id="edge6" class="edge"><title>1981&#45;&gt;85</title>
<path fill="none" stroke="red" stroke-width="0.539379" d="M181.129,-158.715C174.926,-129.045 164.228,-77.8731 157.666,-46.4891"/>
<polygon fill="red" stroke="red" stroke-width="0.539379" points="161.085,-45.7361 155.612,-36.664 154.233,-47.1686 161.085,-45.7361"/>
</g>
</g>
</svg>
